#N canvas 0 23 1440 855 12;
#X floatatom 492 276 0 0 0 0 - - -;
#X text 522 275 <-- delay time;
#X text 707 448 write to delay line;
#X text 641 315 read from delay line;
#X text 566 422 add the original and the delayed signal;
#X obj 492 358 *~ 0.7;
#X text 550 358 feedback gain;
#X obj 492 314 delread~ G02-del 160;
#X obj 536 447 delwrite~ G02-del 2000;
#X obj 492 535 outlet~;
#X obj 492 211 inlet;
#X text 489 188 del;
#X text 404 196 del;
#X obj 407 219 inlet~;
#X connect 0 0 7 0;
#X connect 5 0 8 0;
#X connect 5 0 9 0;
#X connect 7 0 5 0;
#X connect 10 0 0 0;
#X connect 13 0 5 0;
