#N canvas 0 23 1440 855 10;
#X obj 713 755 out1~;
#X obj 29 284 metro 500;
#X floatatom 29 238 5 0 0 0 - - -;
#X obj 32 199 hsl 200 15 0 3000 0 0 empty empty empty -2 -8 0 10 -204800
-1 -1 66 1;
#X obj 32 693 s w1;
#X obj 184 363 r w1;
#X obj 221 406 bng 15 250 50 0 empty empty empty 17 7 0 10 -262144
-1 -1;
#X floatatom 58 358 5 0 0 0 - - -;
#X obj 423 599 *~;
#X obj 438 280 vsl 15 100 0 100 0 0 empty empty empty 0 -9 0 10 -228856
-1 -261234 1400 1;
#X msg 184 405 1;
#X obj 321 499 *~;
#X obj 184 442 adsr 1 1000 1000 0 1000;
#X floatatom 336 413 5 0 0 0 - - -;
#X obj 336 280 vsl 15 100 0 100 0 1 empty empty empty 0 -9 0 10 -204786
-1 -261234 1020 1;
#X floatatom 396 540 5 0 0 0 - - -;
#X obj 345 565 echo 1000;
#X obj 396 280 vsl 15 100 0 1500 0 1 empty empty empty 0 -9 0 10 -228856
-1 -261234 1320 1;
#X floatatom 438 540 5 0 0 0 - - -;
#X obj 511 406 bng 15 250 50 0 empty empty empty 17 7 0 10 -262144
-1 -1;
#X obj 713 599 *~;
#X obj 728 280 vsl 15 100 0 100 0 0 empty empty empty 0 -9 0 10 -228856
-1 -261234 2100 1;
#X msg 474 405 1;
#X obj 611 499 *~;
#X floatatom 626 405 5 0 0 0 - - -;
#X obj 626 280 vsl 15 100 0 100 0 0 empty empty empty 0 -9 0 10 -204786
-1 -261234 198 1;
#X floatatom 686 540 5 0 0 0 - - -;
#X obj 626 442 wave 135;
#X obj 635 565 echo 1000;
#X obj 686 280 vsl 15 100 15 1500 1 1 empty empty empty 0 -9 0 10 -228856
-1 -261234 5568 1;
#X floatatom 728 540 5 0 0 0 - - -;
#X obj 801 406 bng 15 250 50 0 empty empty empty 17 7 0 10 -262144
-1 -1;
#X obj 1003 599 *~;
#X obj 1018 280 vsl 15 100 0 100 0 0 empty empty empty 0 -9 0 10 -228856
-1 -261234 900 1;
#X msg 764 405 1;
#X obj 901 499 *~;
#X floatatom 916 405 5 0 0 0 - - -;
#X obj 916 280 vsl 15 100 0 100 0 1 empty empty empty 0 -9 0 10 -204786
-1 -261234 198 1;
#X floatatom 976 540 5 0 0 0 - - -;
#X obj 916 442 wave 135;
#X obj 925 565 echo 1000;
#X obj 976 280 vsl 15 100 15 1500 1 1 empty empty empty 0 -9 0 10 -228856
-1 -261234 5568 1;
#X floatatom 1018 540 5 0 0 0 - - -;
#X obj 1101 406 bng 15 250 50 0 empty empty empty 17 7 0 10 -262144
-1 -1;
#X obj 1303 599 *~;
#X obj 1318 280 vsl 15 100 0 100 0 0 empty empty empty 0 -9 0 10 -228856
-1 -261234 1300 1;
#X msg 1064 405 1;
#X obj 1201 499 *~;
#X floatatom 1216 405 5 0 0 0 - - -;
#X obj 1216 280 vsl 15 100 0 100 0 1 empty empty empty 0 -9 0 10 -204786
-1 -261234 396 1;
#X floatatom 1276 540 5 0 0 0 - - -;
#X obj 1216 442 wave 135;
#X obj 1225 565 echo 1000;
#X obj 1276 280 vsl 15 100 15 1500 1 1 empty empty empty 0 -9 0 10
-228856 -1 -261234 5568 1;
#X floatatom 1318 540 5 0 0 0 - - -;
#X obj 474 363 r w2;
#X obj 764 363 r w3;
#X obj 1064 363 r w4;
#X obj 30 501 sel 0 1 2 3;
#X obj 29 316 count 4;
#X floatatom 684 38 5 0 0 0 - - -;
#X obj 684 4 notein;
#X floatatom 777 38 5 0 0 0 - - -;
#X obj 731 76 *;
#X floatatom 685 161 5 0 0 0 - - -;
#X obj 1064 442 adsr 4 1000 1000 0 1000;
#X obj 764 442 adsr 3 1000 1000 0 1000;
#X obj 474 442 adsr 2 1000 1000 0 1000;
#X obj 1209 233 * 2;
#X obj 334 441 wave 135;
#X obj 62 693 s w2;
#X obj 92 693 s w3;
#X obj 122 693 s w4;
#X obj 685 110 * 10;
#X obj 366 118 * 5;
#X connect 1 0 59 0;
#X connect 2 0 1 1;
#X connect 2 0 1 0;
#X connect 3 0 2 0;
#X connect 5 0 6 0;
#X connect 5 0 10 0;
#X connect 8 0 0 0;
#X connect 9 0 18 0;
#X connect 10 0 12 0;
#X connect 11 0 16 0;
#X connect 12 0 11 0;
#X connect 13 0 69 0;
#X connect 14 0 13 0;
#X connect 15 0 16 1;
#X connect 16 0 8 0;
#X connect 17 0 15 0;
#X connect 18 0 8 1;
#X connect 20 0 0 0;
#X connect 21 0 30 0;
#X connect 22 0 67 0;
#X connect 23 0 28 0;
#X connect 24 0 27 0;
#X connect 25 0 24 0;
#X connect 26 0 28 1;
#X connect 27 0 23 1;
#X connect 28 0 20 0;
#X connect 29 0 26 0;
#X connect 30 0 20 1;
#X connect 32 0 0 0;
#X connect 33 0 42 0;
#X connect 34 0 66 0;
#X connect 35 0 40 0;
#X connect 36 0 39 0;
#X connect 37 0 36 0;
#X connect 38 0 40 1;
#X connect 39 0 35 1;
#X connect 40 0 32 0;
#X connect 41 0 38 0;
#X connect 42 0 32 1;
#X connect 44 0 0 0;
#X connect 45 0 54 0;
#X connect 46 0 65 0;
#X connect 47 0 52 0;
#X connect 48 0 51 0;
#X connect 49 0 48 0;
#X connect 50 0 52 1;
#X connect 51 0 47 1;
#X connect 52 0 44 0;
#X connect 53 0 50 0;
#X connect 54 0 44 1;
#X connect 55 0 19 0;
#X connect 55 0 22 0;
#X connect 56 0 31 0;
#X connect 56 0 34 0;
#X connect 57 0 43 0;
#X connect 57 0 46 0;
#X connect 58 0 4 0;
#X connect 58 1 70 0;
#X connect 58 2 71 0;
#X connect 58 3 72 0;
#X connect 59 0 7 0;
#X connect 59 0 58 0;
#X connect 60 0 63 0;
#X connect 60 0 37 0;
#X connect 60 0 59 1;
#X connect 60 0 68 0;
#X connect 60 0 25 0;
#X connect 60 0 73 0;
#X connect 60 0 74 0;
#X connect 61 0 60 0;
#X connect 61 1 62 0;
#X connect 62 0 63 1;
#X connect 63 0 73 1;
#X connect 64 0 17 0;
#X connect 64 0 29 0;
#X connect 64 0 41 0;
#X connect 64 0 53 0;
#X connect 65 0 47 0;
#X connect 66 0 35 0;
#X connect 67 0 23 0;
#X connect 68 0 49 0;
#X connect 69 0 11 1;
#X connect 73 0 64 0;
#X connect 74 0 3 0;
