#N canvas 0 23 1440 855 10;
#X obj 713 755 out1~;
#X obj 29 284 metro 500;
#X floatatom 29 238 5 0 0 0 - - -;
#X obj 32 199 hsl 200 15 0 3000 0 0 empty empty empty -2 -8 0 10 -204800
-1 -1 19900 1;
#X obj 32 693 s w1;
#X obj 184 363 r w1;
#X obj 221 406 bng 15 250 50 0 empty empty empty 17 7 0 10 -262144
-1 -1;
#X floatatom 58 358 5 0 0 0 - - -;
#X obj 423 599 *~;
#X obj 438 280 vsl 15 100 0 100 0 0 empty empty empty 0 -9 0 10 -228856
-1 -261234 0 1;
#X msg 184 405 1;
#X obj 321 499 *~;
#X obj 184 442 adsr 1 1000 1000 0 1000;
#X obj 321 565 echo 1000;
#X floatatom 438 540 5 0 0 0 - - -;
#X obj 511 406 bng 15 250 50 0 empty empty empty 17 7 0 10 -262144
-1 -1;
#X obj 713 599 *~;
#X obj 728 280 vsl 15 100 0 100 0 0 empty empty empty 0 -9 0 10 -228856
-1 -261234 1800 1;
#X msg 474 405 1;
#X obj 611 499 *~;
#X obj 626 280 vsl 15 100 0 100 0 0 empty empty empty 0 -9 0 10 -204786
-1 -261234 297 1;
#X obj 612 563 echo 1000;
#X floatatom 728 540 5 0 0 0 - - -;
#X obj 801 406 bng 15 250 50 0 empty empty empty 17 7 0 10 -262144
-1 -1;
#X obj 1003 599 *~;
#X obj 1018 280 vsl 15 100 0 100 0 0 empty empty empty 0 -9 0 10 -228856
-1 -261234 1400 1;
#X msg 764 405 1;
#X obj 901 499 *~;
#X obj 916 280 vsl 15 100 0 100 0 1 empty empty empty 0 -9 0 10 -204786
-1 -261234 297 1;
#X obj 916 442 wave 135;
#X obj 899 563 echo 1000;
#X floatatom 1018 540 5 0 0 0 - - -;
#X obj 1101 406 bng 15 250 50 0 empty empty empty 17 7 0 10 -262144
-1 -1;
#X obj 1207 604 *~;
#X obj 1318 280 vsl 15 100 0 100 0 0 empty empty empty 0 -9 0 10 -228856
-1 -261234 2400 1;
#X msg 1064 405 1;
#X obj 1201 499 *~;
#X floatatom 1216 405 5 0 0 0 - - -;
#X obj 1216 280 vsl 15 100 0 100 0 1 empty empty empty 0 -9 0 10 -204786
-1 -261234 1188 1;
#X obj 1216 442 wave 135;
#X obj 1200 556 echo 1000;
#X floatatom 1321 542 5 0 0 0 - - -;
#X obj 474 363 r w2;
#X obj 764 363 r w3;
#X obj 1064 363 r w4;
#X obj 30 501 sel 0 1 2 3;
#X obj 29 316 count 4;
#X floatatom 681 38 5 0 0 0 - - -;
#X obj 681 4 notein;
#X floatatom 808 84 5 0 0 0 - - -;
#X obj 682 81 *;
#X obj 1064 442 adsr 4 1000 1000 0 1000;
#X obj 764 442 adsr 3 1000 1000 0 1000;
#X obj 474 442 adsr 2 1000 1000 0 1000;
#N canvas 294 297 727 513 osc 1;
#X obj 394 204 inlet;
#X obj 276 387 outlet~;
#X obj 277 307 *~;
#X obj 246 55 inlet;
#X floatatom 405 56 5 0 0 0 - - -;
#X floatatom 273 150 5 0 0 0 - - -;
#X obj 272 201 osc~ 1000;
#X obj 274 112 *;
#X connect 0 0 2 1;
#X connect 0 0 4 0;
#X connect 2 0 1 0;
#X connect 3 0 7 0;
#X connect 4 0 7 1;
#X connect 5 0 6 0;
#X connect 6 0 2 0;
#X connect 7 0 5 0;
#X restore 339 261 pd osc;
#N canvas 307 238 727 513 osc 0;
#X obj 394 204 inlet;
#X obj 276 387 outlet~;
#X obj 277 307 *~;
#X obj 277 201 osc~ 1000;
#X obj 225 40 inlet;
#X floatatom 432 268 5 0 0 0 - - -;
#X obj 265 96 mtof;
#X floatatom 336 150 5 0 0 0 - - -;
#X connect 0 0 2 1;
#X connect 0 0 5 0;
#X connect 2 0 1 0;
#X connect 3 0 2 0;
#X connect 4 0 6 0;
#X connect 6 0 3 0;
#X connect 6 0 7 0;
#X restore 626 441 pd osc;
#X obj 62 693 s w2;
#X obj 92 693 s w3;
#X obj 122 693 s w4;
#X obj 1010 210 * 4;
#X obj 380 60 * 1000;
#X connect 1 0 46 0;
#X connect 2 0 1 1;
#X connect 2 0 1 0;
#X connect 3 0 2 0;
#X connect 5 0 6 0;
#X connect 5 0 10 0;
#X connect 8 0 0 0;
#X connect 9 0 14 0;
#X connect 10 0 12 0;
#X connect 11 0 13 0;
#X connect 12 0 11 0;
#X connect 13 0 8 0;
#X connect 14 0 8 1;
#X connect 16 0 0 0;
#X connect 17 0 22 0;
#X connect 18 0 53 0;
#X connect 19 0 21 0;
#X connect 20 0 55 0;
#X connect 21 0 16 0;
#X connect 22 0 16 1;
#X connect 24 0 0 0;
#X connect 25 0 31 0;
#X connect 26 0 52 0;
#X connect 27 0 30 0;
#X connect 28 0 29 0;
#X connect 29 0 27 1;
#X connect 30 0 24 0;
#X connect 31 0 24 1;
#X connect 33 0 0 0;
#X connect 34 0 41 0;
#X connect 35 0 51 0;
#X connect 36 0 40 0;
#X connect 37 0 39 0;
#X connect 38 0 37 0;
#X connect 39 0 36 1;
#X connect 40 0 33 0;
#X connect 41 0 33 1;
#X connect 42 0 15 0;
#X connect 42 0 18 0;
#X connect 43 0 23 0;
#X connect 43 0 26 0;
#X connect 44 0 32 0;
#X connect 44 0 35 0;
#X connect 45 0 4 0;
#X connect 45 1 56 0;
#X connect 45 2 57 0;
#X connect 45 3 58 0;
#X connect 46 0 7 0;
#X connect 46 0 45 0;
#X connect 47 0 50 0;
#X connect 47 0 28 0;
#X connect 47 0 46 1;
#X connect 47 0 20 0;
#X connect 47 0 54 0;
#X connect 47 0 59 0;
#X connect 47 0 60 0;
#X connect 48 0 47 0;
#X connect 48 1 49 0;
#X connect 49 0 50 1;
#X connect 49 0 54 1;
#X connect 50 0 55 1;
#X connect 51 0 36 0;
#X connect 52 0 27 0;
#X connect 53 0 19 0;
#X connect 54 0 11 1;
#X connect 55 0 19 1;
#X connect 59 0 38 0;
#X connect 60 0 3 0;
#X connect 60 0 13 1;
#X connect 60 0 21 1;
#X connect 60 0 30 1;
#X connect 60 0 40 1;
