#N canvas 0 23 1440 855 10;
#X obj 713 755 out1~;
#X obj 29 284 metro 500;
#X floatatom 29 238 5 0 0 0 - - -;
#X obj 32 199 hsl 200 15 0 3000 0 0 empty empty empty -2 -8 0 10 -204800
-1 -1 3403 1;
#X obj 32 693 s w1;
#X obj 184 363 r w1;
#X obj 62 693 s w2;
#X obj 92 693 s w3;
#X obj 122 693 s w4;
#X obj 221 406 bng 15 250 50 0 empty empty empty 17 7 0 10 -262144
-1 -1;
#X floatatom 58 358 5 0 0 0 - - -;
#X obj 423 599 *~;
#X obj 438 280 vsl 15 100 0 100 0 0 empty empty empty 0 -9 0 10 -228856
-1 -261234 1600 1;
#X msg 184 405 1;
#X obj 321 499 *~;
#X obj 184 442 adsr 1 1000 1000 0 1000;
#X floatatom 336 405 5 0 0 0 - - -;
#X obj 336 280 vsl 15 100 0 100 0 1 empty empty empty 0 -9 0 10 -204786
-1 -261234 1361 1;
#X floatatom 396 540 5 0 0 0 - - -;
#X obj 336 442 wave 135;
#X obj 345 565 echo 1000;
#X obj 396 280 vsl 15 100 0 1500 0 1 empty empty empty 0 -9 0 10 -228856
-1 -261234 91 1;
#X floatatom 438 540 5 0 0 0 - - -;
#X obj 511 406 bng 15 250 50 0 empty empty empty 17 7 0 10 -262144
-1 -1;
#X obj 713 599 *~;
#X obj 728 280 vsl 15 100 0 100 0 0 empty empty empty 0 -9 0 10 -228856
-1 -261234 3500 1;
#X msg 474 405 1;
#X obj 611 499 *~;
#X floatatom 626 405 5 0 0 0 - - -;
#X obj 626 280 vsl 15 100 0 100 0 0 empty empty empty 0 -9 0 10 -204786
-1 -261234 1361 1;
#X floatatom 686 540 5 0 0 0 - - -;
#X obj 626 442 wave 135;
#X obj 635 565 echo 1000;
#X obj 686 280 vsl 15 100 15 1500 1 1 empty empty empty 0 -9 0 10 -228856
-1 -261234 2870 1;
#X floatatom 728 540 5 0 0 0 - - -;
#X obj 801 406 bng 15 250 50 0 empty empty empty 17 7 0 10 -262144
-1 -1;
#X obj 1003 599 *~;
#X obj 1018 280 vsl 15 100 0 100 0 0 empty empty empty 0 -9 0 10 -228856
-1 -261234 5247 1;
#X msg 764 405 1;
#X obj 901 499 *~;
#X floatatom 916 405 5 0 0 0 - - -;
#X obj 916 280 vsl 15 100 0 100 0 1 empty empty empty 0 -9 0 10 -204786
-1 -261234 891 1;
#X floatatom 976 540 5 0 0 0 - - -;
#X obj 916 442 wave 135;
#X obj 925 565 echo 1000;
#X obj 976 280 vsl 15 100 15 1500 1 1 empty empty empty 0 -9 0 10 -228856
-1 -261234 2870 1;
#X floatatom 1018 540 5 0 0 0 - - -;
#X obj 1101 406 bng 15 250 50 0 empty empty empty 17 7 0 10 -262144
-1 -1;
#X obj 1303 599 *~;
#X obj 1318 280 vsl 15 100 0 100 0 0 empty empty empty 0 -9 0 10 -228856
-1 -261234 5148 1;
#X msg 1064 405 1;
#X obj 1201 499 *~;
#X floatatom 1216 405 5 0 0 0 - - -;
#X obj 1216 280 vsl 15 100 0 100 0 1 empty empty empty 0 -9 0 10 -204786
-1 -261234 891 1;
#X floatatom 1276 540 5 0 0 0 - - -;
#X obj 1216 442 wave 135;
#X obj 1225 565 echo 1000;
#X obj 1276 280 vsl 15 100 15 1500 1 1 empty empty empty 0 -9 0 10
-228856 -1 -261234 2870 1;
#X floatatom 1318 540 5 0 0 0 - - -;
#X obj 474 363 r w2;
#X obj 764 363 r w3;
#X obj 1064 363 r w4;
#X obj 239 330 vsl 15 50 10 1000 1 1 empty empty empty 0 -9 0 10 -228856
-1 -261234 2500 1;
#X obj 258 330 vsl 15 50 0 1000 0 1 empty empty empty 0 -9 0 10 -228856
-1 -261234 3500 1;
#X obj 277 330 vsl 15 50 0 100 0 1 empty empty empty 0 -9 0 10 -228856
-1 -261234 1200 1;
#X obj 296 330 vsl 15 50 0 1000 0 1 empty empty empty 0 -9 0 10 -228856
-1 -261234 1000 1;
#X obj 30 501 sel 0 1 2 3;
#X obj 29 316 count 4;
#X floatatom 551 131 5 0 0 0 - - -;
#X obj 549 56 mtof;
#X floatatom 681 38 5 0 0 0 - - -;
#X obj 681 4 notein;
#X floatatom 777 38 5 0 0 0 - - -;
#X obj 682 81 *;
#X floatatom 252 126 5 0 0 0 - - -;
#X obj 1031 86;
#X obj 1064 442 adsr 4 1000 1000 0 1000;
#X obj 764 442 adsr 3 1000 1000 0 1000;
#X obj 474 442 adsr 2 1000 1000 0 1000;
#X connect 1 0 67 0;
#X connect 2 0 1 1;
#X connect 2 0 1 0;
#X connect 3 0 2 0;
#X connect 5 0 9 0;
#X connect 5 0 13 0;
#X connect 11 0 0 0;
#X connect 12 0 22 0;
#X connect 13 0 15 0;
#X connect 14 0 20 0;
#X connect 15 0 14 0;
#X connect 16 0 19 0;
#X connect 17 0 16 0;
#X connect 18 0 20 1;
#X connect 19 0 14 1;
#X connect 20 0 11 0;
#X connect 21 0 18 0;
#X connect 22 0 11 1;
#X connect 24 0 0 0;
#X connect 25 0 34 0;
#X connect 26 0 78 0;
#X connect 27 0 32 0;
#X connect 28 0 31 0;
#X connect 29 0 28 0;
#X connect 30 0 32 1;
#X connect 31 0 27 1;
#X connect 32 0 24 0;
#X connect 33 0 30 0;
#X connect 34 0 24 1;
#X connect 36 0 0 0;
#X connect 37 0 46 0;
#X connect 38 0 77 0;
#X connect 39 0 44 0;
#X connect 40 0 43 0;
#X connect 41 0 40 0;
#X connect 42 0 44 1;
#X connect 43 0 39 1;
#X connect 44 0 36 0;
#X connect 45 0 42 0;
#X connect 46 0 36 1;
#X connect 48 0 0 0;
#X connect 49 0 58 0;
#X connect 50 0 76 0;
#X connect 51 0 56 0;
#X connect 52 0 55 0;
#X connect 53 0 52 0;
#X connect 54 0 56 1;
#X connect 55 0 51 1;
#X connect 56 0 48 0;
#X connect 57 0 54 0;
#X connect 58 0 48 1;
#X connect 59 0 23 0;
#X connect 59 0 26 0;
#X connect 60 0 35 0;
#X connect 60 0 38 0;
#X connect 61 0 47 0;
#X connect 61 0 50 0;
#X connect 62 0 15 2;
#X connect 63 0 15 3;
#X connect 64 0 15 4;
#X connect 65 0 15 5;
#X connect 66 0 4 0;
#X connect 66 1 6 0;
#X connect 66 2 7 0;
#X connect 66 3 8 0;
#X connect 67 0 10 0;
#X connect 67 0 66 0;
#X connect 68 0 21 0;
#X connect 68 0 29 0;
#X connect 68 0 17 0;
#X connect 69 0 68 0;
#X connect 70 0 69 0;
#X connect 70 0 73 0;
#X connect 70 0 53 0;
#X connect 70 0 41 0;
#X connect 70 0 67 1;
#X connect 71 0 70 0;
#X connect 71 1 72 0;
#X connect 72 0 73 1;
#X connect 72 0 33 0;
#X connect 72 0 57 0;
#X connect 72 0 45 0;
#X connect 73 0 74 0;
#X connect 74 0 3 0;
#X connect 76 0 51 0;
#X connect 77 0 39 0;
#X connect 78 0 27 0;
