#N canvas 0 23 1440 855 12;
#X floatatom 538 130 5 -30 130 0 - - -;
#X obj 538 160 mtof;
#X obj 538 266 phasor~;
#X obj 538 94 inlet;
#X obj 538 425 outlet~;
#X floatatom 632 208 5 0 0 0 - - -;
#X text 535 63 freq;
#X connect 0 0 1 0;
#X connect 1 0 2 0;
#X connect 1 0 5 0;
#X connect 2 0 4 0;
#X connect 3 0 0 0;
