#N canvas 0 23 1440 855 12;
#X floatatom 538 204 5 -30 130 0 - - -;
#X floatatom 719 306 0 0 0 0 - - -;
#X text 749 305 <-- delay time;
#X text 851 522 write to delay line;
#X text 871 344 read from delay line;
#X text 675 495 add the original and the delayed signal;
#X obj 538 255 mtof;
#X obj 640 496 +~;
#X obj 719 368 *~ 0.7;
#X text 777 368 feedback gain;
#X obj 538 358 phasor~;
#X obj 719 344 delread~ G02-del 160;
#X obj 680 521 delwrite~ G02-del 2000;
#X obj 538 160 inlet;
#X obj 637 578 outlet~;
#X floatatom 581 317 5 0 0 0 - - -;
#X obj 719 161 inlet;
#X text 535 129 freq;
#X text 716 138 del;
#X connect 0 0 6 0;
#X connect 1 0 11 0;
#X connect 6 0 10 0;
#X connect 6 0 15 0;
#X connect 7 0 14 0;
#X connect 7 0 12 0;
#X connect 8 0 7 1;
#X connect 10 0 7 0;
#X connect 11 0 8 0;
#X connect 13 0 0 0;
#X connect 16 0 1 0;
